<?xml version="1.0" encoding="utf-8"?>
<!-- Generator: Adobe Illustrator 21.1.0, SVG Export Plug-In . SVG Version: 6.00 Build 0)  -->
<svg version="1.1" id="图层_1" xmlns="http://www.w3.org/2000/svg" xmlns:xlink="http://www.w3.org/1999/xlink" x="0px" y="0px"
	 viewBox="0 0 28 28" style="enable-background:new 0 0 28 28;" xml:space="preserve">
<style type="text/css">
	.st0{fill-rule:evenodd;clip-rule:evenodd;}
</style>
<path class="st0" d="M24.2,26H3.9v-0.1C2.8,25.9,2,25,2,24v-7.1C2,15.8,2.9,15,3.9,15H15v-2.1h3V15l6.1,0.1c0.5,0,1,0.2,1.4,0.6
	c0.4,0.4,0.6,0.8,0.6,1.3v7.1C26.1,25.2,25.2,26,24.2,26z M24,16.9H4v7h20V16.9z M6.4,18.5c0.8,0,1.5,0.6,1.5,1.4
	c0,0.4-0.2,0.7-0.4,1c-0.3,0.3-0.6,0.4-1,0.4c-1,0.1-1.6-0.6-1.6-1.4S5.6,18.5,6.4,18.5z M11.9,18.5c0.8,0,1.5,0.6,1.5,1.4
	c0,0.4-0.1,0.7-0.4,1c-0.2,0.2-0.6,0.4-1,0.4c-0.8,0-1.5-0.6-1.5-1.4S11.2,18.5,11.9,18.5z M19.5,7.5l-2.7,2.8l-2.7-2.8
	C14.9,7.2,15.8,7,16.8,7C17.7,7,18.6,7.2,19.5,7.5z M16.7,4C15,4,13.4,4.4,12,5.2l-1.5-1.6c1.8-1.1,3.9-1.8,6.1-1.8
	c2.3,0,4.5,0.7,6.3,1.9l-1.5,1.5C20,4.4,18.4,4,16.7,4z"/>
</svg>
