<?xml version="1.0" encoding="utf-8"?>
<!-- Generator: Adobe Illustrator 21.1.0, SVG Export Plug-In . SVG Version: 6.00 Build 0)  -->
<svg version="1.1" id="图层_1" xmlns="http://www.w3.org/2000/svg" xmlns:xlink="http://www.w3.org/1999/xlink" x="0px" y="0px"
	 viewBox="0 0 28 28" style="enable-background:new 0 0 28 28;" xml:space="preserve">
<style type="text/css">
	.st0{clip-path:url(#SVGID_2_);}
	.st1{clip-path:url(#SVGID_4_);}
	.st2{clip-path:url(#SVGID_6_);}
	.st3{clip-path:url(#SVGID_8_);}
	.st4{clip-path:url(#SVGID_10_);}
	.st5{clip-path:url(#SVGID_12_);}
</style>
<g>
	<g>
		<defs>
			<path id="SVGID_1_" d="M22.9,21.2h-6c-1,0-1.8-0.8-1.8-1.8v-7c0-1,0.8-1.8,1.8-1.8h6v1.5h-6c-0.1,0-0.2,0.1-0.2,0.2v7
				c0,0.1,0.1,0.2,0.2,0.2h6V21.2z"/>
		</defs>
		<use xlink:href="#SVGID_1_"  style="overflow:visible;"/>
		<clipPath id="SVGID_2_">
			<use xlink:href="#SVGID_1_"  style="overflow:visible;"/>
		</clipPath>
		<g class="st0">
			<g>
				<defs>
					<rect id="SVGID_3_" x="0.1" y="0.7" width="28" height="28"/>
				</defs>
				<use xlink:href="#SVGID_3_"  style="overflow:visible;"/>
				<clipPath id="SVGID_4_">
					<use xlink:href="#SVGID_3_"  style="overflow:visible;"/>
				</clipPath>
				<rect x="10.1" y="5.7" class="st1" width="17.8" height="20.5"/>
			</g>
		</g>
		<g class="st0">
			<g>
				<defs>
					<rect id="SVGID_5_" x="15.9" y="13.7" width="7" height="1.5"/>
				</defs>
				<use xlink:href="#SVGID_5_"  style="overflow:visible;"/>
				<clipPath id="SVGID_6_">
					<use xlink:href="#SVGID_5_"  style="overflow:visible;"/>
				</clipPath>
				<g class="st2">
					<g>
						<defs>
							<rect id="SVGID_7_" x="0.1" y="0.7" width="28" height="28"/>
						</defs>
						<use xlink:href="#SVGID_7_"  style="overflow:visible;"/>
						<clipPath id="SVGID_8_">
							<use xlink:href="#SVGID_7_"  style="overflow:visible;"/>
						</clipPath>
						<rect x="10.9" y="8.7" class="st3" width="17" height="11.5"/>
					</g>
				</g>
				<g class="st2">
					<g>
						<defs>
							<rect id="SVGID_9_" x="15.9" y="16.7" width="7" height="1.5"/>
						</defs>
						<use xlink:href="#SVGID_9_"  style="overflow:visible;"/>
						<clipPath id="SVGID_10_">
							<use xlink:href="#SVGID_9_"  style="overflow:visible;"/>
						</clipPath>
						<g class="st4">
							<g>
								<defs>
									<rect id="SVGID_11_" x="0.1" y="0.7" width="28" height="28"/>
								</defs>
								<use xlink:href="#SVGID_11_"  style="overflow:visible;"/>
								<clipPath id="SVGID_12_">
									<use xlink:href="#SVGID_11_"  style="overflow:visible;"/>
								</clipPath>
								<rect x="10.9" y="11.7" class="st5" width="17" height="11.5"/>
							</g>
						</g>
					</g>
				</g>
			</g>
		</g>
	</g>
</g>
<path d="M23.7,25.5h-7.2c-0.5,0-1-0.2-1.4-0.6l-3.4-3.4H5.1v-1h-1v1h-4v-9h4v1h1l0.1-6H3.1v-4h10v4h-2v4h0.6l3.4-3.4
	c0.4-0.4,0.9-0.6,1.4-0.6h7.2c0.5,0,1,0.2,1.4,0.6l2.4,2.4c0.4,0.4,0.6,0.9,0.6,1.4v9.2c0,0.5-0.2,1-0.6,1.4l-2.4,2.4
	C24.7,25.3,24.2,25.5,23.7,25.5z M7.1,19.5h5.4l4,4l7.2,0l2.4-2.4l0-9.2l0,0l-2.4-2.4l-7.2,0l-4,4H9.1v-8h-4h2.1l-0.1,10h-5v4v-1h5
	V19.5z"/>
<rect x="16.5" y="13.5" width="6.6" height="1.5"/>
<rect x="16.5" y="16.5" width="6.6" height="1.5"/>
</svg>
