<?xml version="1.0" encoding="utf-8"?>
<!-- Generator: Adobe Illustrator 21.1.0, SVG Export Plug-In . SVG Version: 6.00 Build 0)  -->
<svg version="1.1" id="图层_1" xmlns="http://www.w3.org/2000/svg" xmlns:xlink="http://www.w3.org/1999/xlink" x="0px" y="0px"
	 viewBox="0 0 28 28" style="enable-background:new 0 0 28 28;" xml:space="preserve">
<style type="text/css">
	.st0{clip-path:url(#SVGID_2_);}
	.st1{clip-path:url(#SVGID_4_);}
</style>
<g>
	<g>
		<defs>
			<path id="SVGID_1_" d="M26,18.6c0,1.7-1.3,3-3,3h-1.5v4.5l-6-4.5H5c-1.7,0-3-1.3-3-3V5.1c0-1.7,1.3-3,3-3h18c1.7,0,3,1.3,3,3
				V18.6z M22.5,4.2h-17c-1.2,0-1.4,0.3-1.4,1.4v12.7c0,1.1,0.2,1.4,1.4,1.4h11.3l2.8,2.8v-2.8h2.8c1.2,0,1.4-0.3,1.4-1.4V5.6
				C23.9,4.5,23.7,4.2,22.5,4.2L22.5,4.2z M8,16.2h12v-2.1H8V16.2z M8,10.2h12V8.1H8V10.2z"/>
		</defs>
		<use xlink:href="#SVGID_1_"  style="overflow:visible;"/>
		<clipPath id="SVGID_2_">
			<use xlink:href="#SVGID_1_"  style="overflow:visible;"/>
		</clipPath>
		<g class="st0">
			<g>
				<defs>
					<rect id="SVGID_3_" y="0.1" width="28" height="28"/>
				</defs>
				<use xlink:href="#SVGID_3_"  style="overflow:visible;"/>
				<clipPath id="SVGID_4_">
					<use xlink:href="#SVGID_3_"  style="overflow:visible;"/>
				</clipPath>
				<rect x="-3" y="-2.9" class="st1" width="34" height="34"/>
			</g>
		</g>
	</g>
</g>
</svg>
