<?xml version="1.0" encoding="utf-8"?>
<!-- Generator: Adobe Illustrator 21.1.0, SVG Export Plug-In . SVG Version: 6.00 Build 0)  -->
<svg version="1.1" id="图层_1" xmlns="http://www.w3.org/2000/svg" xmlns:xlink="http://www.w3.org/1999/xlink" x="0px" y="0px"
	 viewBox="0 0 28 28" style="enable-background:new 0 0 28 28;" xml:space="preserve">
<style type="text/css">
	.st0{fill-rule:evenodd;clip-rule:evenodd;}
</style>
<path class="st0" d="M27.8,17.8l-5,9.3l-10,0.1l-0.8-1.9H7.8c-2.2,0-3.2-0.3-4.1-0.8c-1-0.5-1.7-1.3-2.2-2.3C1,21.3,0.7,20.3,0.7,18
	V8.9c0-2.4,0.3-3.4,0.8-4.3c0.5-1,1.3-1.8,2.2-2.3c1-0.5,1.9-0.8,4.2-0.8h8.8c2.3,0,3.3,0.3,4.2,0.8c1,0.5,1.7,1.3,2.2,2.3
	c0.5,1,0.8,1.9,0.8,4.3v1.4l0,1.2L27.8,17.8z M13.9,25.1l7.6,0l3.9-7.2l-3.9-6.3l-7.7,0l-3.2,6.3L13.9,25.1z M21.6,5.4
	c-0.3-0.7-0.9-1.2-1.5-1.5c-0.6-0.3-1.2-0.6-3.4-0.6H7.9c-2.2,0-2.8,0.2-3.4,0.6C3.9,4.3,3.4,4.8,3,5.4C2.7,6,2.5,6.7,2.5,8.9V18
	c0,2.1,0.3,2.8,0.6,3.3c0.3,0.7,0.9,1.2,1.5,1.5c0.6,0.3,1.2,0.6,3.3,0.6H11l-2.5-5.7l4.2-8.3l9.4-0.1V8.9C22.2,6.7,21.9,6,21.6,5.4
	z M18.1,14.1c2.3,0,4.1,1.9,4.1,4.2c0,2.3-1.8,4.2-4.1,4.2S14,20.6,14,18.3C14,16,15.8,14.1,18.1,14.1z M18.1,20.5
	c1.2,0,2.1-1,2.1-2.2c0-1.2-1-2.2-2.1-2.2c-1.2,0-2.1,1-2.1,2.2C16,19.5,16.9,20.5,18.1,20.5z"/>
</svg>
