<?xml version="1.0" standalone="no"?><!DOCTYPE svg PUBLIC "-//W3C//DTD SVG 1.1//EN" "http://www.w3.org/Graphics/SVG/1.1/DTD/svg11.dtd"><svg class="icon" width="200px" height="200.00px" viewBox="0 0 1024 1024" version="1.1" xmlns="http://www.w3.org/2000/svg"><path fill="#333333" d="M591.46 278.869c34.731 0 62.99 28.16 62.99 62.763v109.952c-0 0.005-0 0.012-0 0.018 0 15.702 12.729 28.43 28.43 28.43 4.781 0 9.286-1.18 13.24-3.264l237.911-123.076v330.51l-237.924-124.8c-3.83-2.056-8.38-3.264-13.212-3.264-5.441 0-10.525 1.532-14.843 4.188-8.158 5-13.6 13.997-13.601 24.265l0 111.984c0 34.617-28.26 62.763-62.99 62.763h-451.058c-34.731 0-62.99-28.16-62.99-62.763v-354.944c0-34.617 28.26-62.763 62.99-62.763h451.058M591.46 250.425h-451.058c-50.503 0-91.435 40.832-91.435 91.207v354.958c0 50.375 40.932 91.207 91.435 91.207h451.058c50.503 0 91.435-40.832 91.435-91.207v-111.986l279.58 146.66v-424.306l-279.58 144.626v-109.952c0-50.375-40.946-91.207-91.435-91.207z"  /></svg>