<?xml version="1.0" standalone="no"?><!DOCTYPE svg PUBLIC "-//W3C//DTD SVG 1.1//EN" "http://www.w3.org/Graphics/SVG/1.1/DTD/svg11.dtd"><svg class="icon" width="16px" height="15.98px" viewBox="0 0 1025 1024" version="1.1" xmlns="http://www.w3.org/2000/svg"><path fill="#000000" d="M988.444444 631.466667C871.822222 785.066667 701.155556 881.777778 513.422222 881.777778S155.022222 785.066667 38.4 631.466667c-51.2-68.266667-51.2-167.822222 0-236.088889C155.022222 238.933333 325.688889 142.222222 513.422222 142.222222s358.4 96.711111 475.022222 250.311111c48.355556 68.266667 48.355556 170.666667 0 238.933334z m-45.511111-182.044445c-108.088889-156.444444-267.377778-244.622222-429.511111-244.622222-164.977778 0-321.422222 88.177778-429.511111 244.622222-25.6 36.977778-25.6 91.022222 0 128 108.088889 156.444444 267.377778 244.622222 429.511111 244.622222 164.977778 0 321.422222-88.177778 429.511111-244.622222 25.6-39.822222 25.6-91.022222 0-128zM513.422222 748.088889c-130.844444 0-238.933333-105.244444-238.933333-236.088889s108.088889-236.088889 238.933333-236.088889 238.933333 105.244444 238.933334 236.088889-105.244444 236.088889-238.933334 236.088889z m0-420.977778c-102.4 0-187.733333 82.488889-187.733333 184.888889s82.488889 184.888889 187.733333 184.888889c102.4 0 184.888889-82.488889 184.888889-184.888889 2.844444-102.4-82.488889-184.888889-184.888889-184.888889z"  /></svg>