<?xml version="1.0" encoding="utf-8"?>
<!-- Generator: Adobe Illustrator 21.1.0, SVG Export Plug-In . SVG Version: 6.00 Build 0)  -->
<svg version="1.1" id="图层_1" xmlns="http://www.w3.org/2000/svg" xmlns:xlink="http://www.w3.org/1999/xlink" x="0px" y="0px"
	 viewBox="0 0 28 28" style="enable-background:new 0 0 28 28;" xml:space="preserve">
<style type="text/css">
	.st0{clip-path:url(#SVGID_2_);}
	.st1{clip-path:url(#SVGID_4_);}
	.st2{clip-path:url(#SVGID_6_);}
</style>
<g>
	<defs>
		<path id="SVGID_1_" d="M24,17.2H4v7h20V17.2z M4.9,20.2c0-0.8,0.7-1.4,1.5-1.4c0.8,0,1.5,0.6,1.5,1.4c0,0.4-0.2,0.7-0.4,1
			c-0.3,0.3-0.6,0.4-1,0.4C5.5,21.7,4.9,21,4.9,20.2z M3.9,26.2c-1.1,0-1.9-0.9-1.9-1.9v-7.1c0-1.1,0.9-1.9,1.9-1.9l11.1,0v-2.1h3
			v2.1l6.1,0.1c0.5,0,1,0.2,1.4,0.6c0.4,0.4,0.6,0.8,0.6,1.3v7.1c0,1.1-0.9,1.9-1.9,1.9H3.9z M10.5,20.2c0,0.8,0.7,1.4,1.5,1.4
			c0.4,0,0.8-0.2,1-0.4c0.3-0.3,0.4-0.6,0.4-1c0-0.8-0.7-1.4-1.5-1.4C11.2,18.8,10.5,19.4,10.5,20.2z"/>
	</defs>
	<use xlink:href="#SVGID_1_"  style="overflow:visible;fill-rule:evenodd;clip-rule:evenodd;"/>
	<clipPath id="SVGID_2_">
		<use xlink:href="#SVGID_1_"  style="overflow:visible;"/>
	</clipPath>
	<rect x="-3" y="8.1" class="st0" width="34" height="23.1"/>
</g>
<g>
	<defs>
		<path id="SVGID_3_" d="M10.5,3.9L12,5.5c1.4-0.8,3-1.2,4.7-1.2s3.3,0.4,4.7,1.2L22.9,4c-1.8-1.2-4-1.9-6.3-1.9
			C14.4,2.1,12.3,2.8,10.5,3.9z"/>
	</defs>
	<use xlink:href="#SVGID_3_"  style="overflow:visible;fill-rule:evenodd;clip-rule:evenodd;"/>
	<clipPath id="SVGID_4_">
		<use xlink:href="#SVGID_3_"  style="overflow:visible;"/>
	</clipPath>
	<rect x="5.5" y="-2.9" class="st1" width="22.4" height="13.3"/>
</g>
<g>
	<defs>
		<path id="SVGID_5_" d="M16.8,10.6l2.7-2.8c-0.9-0.3-1.8-0.5-2.7-0.5c-1,0-1.9,0.2-2.7,0.5L16.8,10.6z"/>
	</defs>
	<use xlink:href="#SVGID_5_"  style="overflow:visible;fill-rule:evenodd;clip-rule:evenodd;"/>
	<clipPath id="SVGID_6_">
		<use xlink:href="#SVGID_5_"  style="overflow:visible;"/>
	</clipPath>
	<rect x="9" y="2.2" class="st2" width="15.5" height="13.3"/>
</g>
</svg>
